<svg
  xmlns="http://www.w3.org/2000/svg"
  width="64"
  height="64"
  viewBox="0 0 64 64"
  role="img"
  aria-labelledby="title desc"
>
  <title id="title">Bible Quiz Icon</title>
  <desc id="desc">A thick question mark on a rounded square background.</desc>

  <!-- Solid background -->
  <rect width="64" height="64" rx="14" fill="#1F3B63" />

  <!-- Big, thick question mark -->
  <path
    d="
      M32 14
      c-6.5 0 -12 4.7 -12 11.2
      h4.6
      c0 -3.9 3 -6.7 7.4 -6.7
      4.2 0 7.4 2.8 7.4 6.6
      0 2.7 -1.1 4.3 -3.7 5.9
      -3.3 2.0 -5.1 4.0 -5.1 8.1
      v2.3
      h4.6
      v-2.0
      c0 -2.5 1.2 -3.9 4.1 -5.7
      3.3 -2.0 5-4.6 5-8.6
      0 -6.6 -5.1 -11.7 -12.3 -11.7
      z"
    fill="#FFFFFF"
    stroke="#FFFFFF"
    stroke-width="2.5"
    stroke-linejoin="round"
  />

  <!-- Dot of the question mark (thicker) -->
  <circle cx="32" cy="48.5" r="3.8" fill="#FFFFFF" />
</svg>
